<?xml version='1.0' encoding='utf-8'?>
<svg xmlns="http://www.w3.org/2000/svg" width="1713px" height="1225px" version="1.1" viewBox="-317 438 1713 1225"> <g fill="#fff"> <path d="m-317 435.5c-0.6635 0-1.2998 0.26359-1.7689 0.73273-0.46914 0.46915-0.73273 1.1054-0.73273 1.7689l0.00101 1225c0 1.3818 1.12 2.5017 2.5016 2.5017l1713 1e-3c0.6634 0 1.2997-0.2633 1.769-0.7327 0.0217-0.0217 0.0628-0.065 0.0786-0.0824l2e-3 -0.0022c0.3745-0.4111 0.6002-0.9343 0.6442-1.4861l2e-4 -0.0018c5e-3 -0.0646 0.0077-0.1293 0.0077-0.1965l-1e-3 -1225c0-1.3815-1.1202-2.5016-2.5017-2.5016l-1713-0.00101z"/> </g> <path d="m1019.5 943.02c-6.5135 1.887-15.239 9.9303-17.638 16.274-2.3976 6.53-1.9866 16.774 1.0153 22.353 1.4999 2.7879 31.796 33.787 67.324 69.052l64.697 64.032-64.773 65.445c-35.636 35.9-65.7 67.311-66.809 69.551-2.5885 5.2265-2.5463 16.405 0.08084 21.61 7.3184 14.132 21.313 20.227 34.15 15.336 11.348-4.3277 161.68-156.35 163.51-165.3 3.2947-15.847 4.6052-13.988-80.102-98.44-86.575-85.933-85.08-84.821-101.46-79.916z"/> <path d="m867.73 902.23c-3.5337 1.8753-7.9891 5.9917-9.841 8.9792-2.0354 3.5476-18.511 82.039-42.656 201.73l-39.51 196.13 3.1985 8.3705c3.9516 10.604 11.796 15.977 24.096 17.05 11.368 0.8892 20.662-4.3618 25.841-14.627 1.6638-3.5459 15.945-70.294 31.677-148.23 15.545-77.93 32.737-163.88 38.227-190.72 5.4875-27.034 10.052-52.201 10.038-55.927-0.07433-19.933-23.036-32.517-41.07-22.762z"/> <path d="m406.92 699.26c-3.6131 1.7483-6.1672 4.3972-7.287 7.4928-0.82067 2.3409-1.7288 1.5147-3.1023-2.8539-1.2971-4.0675-1.3728-4.1422-2.8009-2.8551-1.6534 1.514-1.8647 5.5116-0.5687 9.2773 0.4575 1.3558 0.68816 2.5614 0.5382 2.7882-0.2256 0.15175-1.8872-0.52075-3.7008-1.5697-1.8135-0.97354-4.3053-1.8692-5.4365-1.8651-1.8098 0.00684-2.0352 0.23383-1.6535 1.5143 0.3819 1.2806 0.00598 1.5836-2.6319 1.9705-5.2002 0.84903-11.965 6.7561-9.9972 8.7096 0.60553 0.60073 0.98254 0.59936 1.2819-0.0047 0.30011-0.45347 1.5052-0.83507 2.7872-0.83987l2.1868-0.0082-3.1543 3.4804c-1.8028 1.8922-4.8071 5.1458-6.7601 7.189-2.9297 3.0274-3.604 4.2367-3.5959 6.4234 0.00543 1.4325-0.66284 4.2254-1.4851 6.1893-2.8396 7.0235-3.9514 12.231-2.9641 14.112 0.98719 1.8064 0.7749 5.5777-0.7063 12.823-0.6654 3.5466-0.73297 5.6587 0.0355 9.5014 0.7705 4.4465 0.69879 5.427-0.64307 9.5796-1.9392 5.8136-2.2014 16.372-0.38916 17.044 1.737 0.6723 1.3737 4.3686-1.0195 9.7319-2.2435 5.0607-3.3695 6.4222-4.204 5.068-0.30335-0.4514-2.1951-2.1786-4.3126-3.8298-2.1174-1.5759-5.9-4.8047-8.472-6.9817-10.441-9.1612-13.844-11.713-18.527-13.958-4.3062-2.0955-5.5139-2.3926-9.8111-2.0748-6.1824 0.32422-13.033 3.517-18.896 8.5913-6.9906 6.0589-7.589 7.3433-7.3369 14.355l0.24887 6.0318-16.042 5.4139c-8.8115 3.0492-16.493 5.8676-17.094 6.3978-1.4283 1.2118-1.4055 7.3201-0.02771 12.82 1.5292 5.65 4.8139 16.949 6.2627 21.242 1.0674 3.1635 1.07 3.8421 0.02783 7.4656-1.9369 6.4171-1.5441 10.639 1.0303 13.419 1.2113 1.2775 3.2526 2.7028 4.5361 3.1504 2.2652 0.7456 3.1009 2.4016 1.671 3.2364-1.2789 0.83425-7.7805 16.694-9.864 24.168-5.2854 18.495-7.334 35.394-7.3134 61.185l0.07007 18.852-1.4468-3.7652c-0.762-2.1088-3.0493-8.8869-4.9577-15.064-12.517-40.222-27.432-76.514-34.625-84.255-3.5586-3.8328-9.1474-6.1497-12.839-5.3064-3.2401 0.69066-6.622 3.7952-7.4403 6.8146-0.89284 3.2458-0.20233 6.4106 4.8366 23.058 9.8496 32.691 16.802 56.872 19.482 67.721 0.91803 3.5409 2.1422 8.287 2.754 10.547 1.759 6.6296 4.8968 18.985 6.2012 25.013 0.68982 3.0138 1.6871 7.5349 2.2996 10.021 0.61261 2.4863 1.5332 6.7059 2.1466 9.4182 0.61334 2.7124 1.7647 8.1376 2.6841 12.055 5.9821 26.899 12.181 71.595 15.108 108.31 0.79205 10.178 1.2559 13.267 2.2405 14.395 0.90857 0.977 1.292 2.7101 1.3039 5.8771 0.0404 10.859 6.4975 23.579 15.573 30.634 5.4452 4.203 14.133 8.469 18.735 9.0552 2.9426 0.4415 3.5474 0.8164 3.2493 1.7977-1.4888 5.2089-8.9303 31.932-9.3761 33.743-0.29724 1.2077-2.8283 10.04-5.5827 19.628-2.7548 9.5116-5.1362 18.042-5.3594 18.872-0.22315 0.8302-2.9025 10.342-5.9542 21.137-3.1271 10.795-5.8806 20.609-6.1776 21.892-0.66971 2.4154-1.3401 4.68-5.5843 19.25-1.4888 5.209-3.4243 12.003-4.2423 15.098-1.4122 5.5101-3.7201 13.512-13.695 48.314-6.1053 21.062-6.402 22.42-5.8645 24.982l0.45996 2.0346-5.5032 0.4729c-3.0156 0.2373-13.496 0.6535-23.223 0.9156-29.181 0.7875-64.317 2.1246-64.768 2.5033-0.14997 0.2268 161.15-0.2222 358.5-0.9567 197.35-0.7341 358.65-1.4852 358.49-1.6352-0.4543-0.4508-56.642-2.3532-81.755-2.7879-11.161-0.1848-21.418-0.5236-22.776-0.7447l-2.3393-0.3683 0.36261-3.9227c0.28853-3.5454 0.13519-4.2233-1.987-7.081-3.5625-4.8885-6.6588-6.0837-24.997-9.5595-16.074-3.0321-29.37-9.4679-47.443-22.899-13.762-10.129-16.032-12.157-16.72-14.567-0.53586-2.1096-0.7624-2.2595-4.3066-2.2463-3.5444 0.0131-3.6956-0.0618-4.6099-2.6221-1.8297-5.3476-1.9049-5.3472 6.5425-4.8508 5.054 0.3582 7.5422 0.2736 7.5402-0.2543-4e-3 -1.0559 4.1969-27.239 5.1588-32.295 1.2579-6.4145 4.4361-23.696 5.5448-29.732 1.1078-6.3385 11.473-57.958 13.179-65.731 5.6357-25.66 10.24-44.756 16.413-67.855 5.1318-19.173 6.6758-29.812 6.0287-41.574-0.5713-11.687-1.724-17.488-4.6886-23.812-2.8892-6.3236-8.8696-12.56-15.141-15.78-2.2668-1.198-4.1564-2.3974-4.1572-2.6238-0.00265-0.6788 21.637-1.5131 41.319-1.5864 16.138-0.06 17.796-0.2169 20.506-1.5845 2.7849-1.4432 6.7631-6.3595 6.7559-8.3202-0.00364-0.9803 2.6111-7.6262 10.085-25.677 9.5674-22.81 17.19-41.54 22.046-53.623 7.995-19.862 11.956-29.605 14.123-34.741 1.1965-2.7189 3.5881-8.4592 5.3064-12.839 3.2881-8.081 12.78-30.89 19.507-47.053 2.0929-4.9094 3.659-9.6662 3.5048-10.57-0.15525-1.206-2.197-2.7065-7.5618-5.6276-8.6898-4.7182-11.86-5.4607-13.887-3.191-0.8264 0.8326-5.2404 10.276-9.8005 21.001-11.064 25.982-19.363 45.092-21.533 49.7-0.97244 2.1151-4.1884 9.3664-7.1036 16.24-2.9153 6.873-6.1312 14.124-7.1035 16.24-0.89736 2.0394-4.935 11.254-8.8224 20.394-3.9629 9.139-11.814 27.116-17.497 40.032l-10.395 23.416-33.481 0.3506-33.481 0.2757-2.2705-2.1785c-1.2864-1.2019-7.107-4.9508-12.927-8.3981-5.8189-3.3718-12.697-7.6445-15.193-9.4449-2.8731-1.95-5.5171-3.2221-6.7988-3.2173-3.3933 0.0127-16.301-3.4082-19.852-5.2051-3.1731-1.5718-3.3239-1.571-9.7292-0.3408-3.617 0.7678-10.474 2.3013-15.22 3.4503-12.054 3.0612-14.844 3.2977-26.008 2.4345-5.356-0.5082-12.145-1.0109-15.087-1.3016-3.7718-0.2876-5.659-0.8084-6.6427-1.785-1.06-1.1271-2.4938-1.4233-6.4152-1.4087-2.7902 0.0103-8.5987-0.4961-12.975-1.0829-4.3758-0.5871-9.5813-1.0955-11.542-1.0882-4.6 0.0171-4.3779-1.115 0.66639-3.3207 2.0327-0.8372 6.5485-3.267 9.9347-5.2402 10.233-5.9954 16.18-8.9587 31.388-15.727 2.1082-0.9129 4.8184-2.1293 6.0229-2.6617 1.28-0.5327 6.4741-2.9652 11.669-5.3221 5.1946-2.357 13.024-5.8551 17.542-7.757 7.8297-3.4228 8.0554-3.5744 8.0471-5.8367-0.00514-1.3572-0.5442-4.3718-1.1563-6.7072-0.61218-2.4108-1.1484-4.6711-1.1496-4.9727-0.0015-0.37697 1.504-1.1367 3.3873-1.6715 4.0676-1.222 4.0669-1.4483 1.4677-10.865-1.0694-3.691-1.9118-7.1567-1.9133-7.534-0.0017-0.4524 2.1046-1.893 4.7389-3.1849 4.3654-2.2784 5.2697-2.4328 15.223-2.7713 10.631-0.4166 14.625-1.1855 26.451-4.9246l6.1012-1.9077 4.6085 2.3206c5.2132 2.6199 7.3254 2.8381 9.8076 1.0945 1.2784-0.9097 1.6522-1.8159 1.4947-3.5499-0.2339-2.1104-1.0664-2.9367-6.0555-6.1609-3.2505-2.0994-5.897-3.9748-5.8984-4.352-0.0828-1.9604 11.692 0.86136 15.02 3.6391 3.7822 3.153 9.1309 1.7003 9.1153-2.5224-0.0139-3.695-6.5159-8.1955-15.575-10.801-2.3402-0.67013-3.3233-1.4204-3.3266-2.3255-0.00563-1.5081 1.4276-1.4382 11.992 0.55887 4.6787 0.8874 6.1139 1.4852 8.8379 4.0392 3.6321 3.3045 4.4624 3.5275 6.9445 1.7839 1.1282-0.7584 1.652-1.8912 1.6453-3.7012-0.01077-2.8655-1.7516-4.5934-10.067-10.143-2.7214-1.7996-4.8391-3.4508-4.7643-3.6018 0.15024-0.15136 2.4908 0.5939 5.1336 1.5646 11.177 4.332 15.099 4.6191 17.953 1.5922 2.479-2.6487 1.5693-3.852-4.9253-6.3916-2.9452-1.1202-7.5531-3.2144-10.273-4.7126-2.7961-1.5731-6.0431-2.7678-7.3251-2.7629-3.469 0.0128-2.9452-1.1202 1.345-3.3229 8.8062-4.4821 14.292-9.5551 14.278-13.326-0.01467-3.9213-1.5234-4.142-7.9964-0.8751-3.3119 1.6715-6.7749 3.268-7.8294 3.5734-1.0547 0.30542-2.1839 0.83758-2.635 1.141-0.3762 0.30292-3.0871 1.3689-6.0245 2.2847-2.8623 0.9155-6.2517 1.9839-7.5321 2.441-1.205 0.38159-6.4813 1.08-11.683 1.4764-5.1265 0.396-10.629 1.0951-12.135 1.5533-1.8832 0.61011-6.3186 4.2464-14.434 12.119-13.751 13.097-19.242 16.888-29.334 20.394l-7.4561 2.5918-1.3644-1.8804-1.4395-1.8042-5.1213 1.7534c-2.7866 0.9907-7.3043 2.8174-10.014 4.1096-2.7104 1.2165-6.8506 3.1173-9.26 4.1063-2.334 0.989-6.2483 2.8889-8.6565 4.2553-7.2243 4.0236-9.3325 4.9365-16.338 7.0739-9.8675 2.9776-19.734 6.4078-24.326 8.4607-2.3337 1.0645-6.327 1.9844-9.7946 2.299-7.4634 0.6311-15.223 2.6206-21.17 5.3576l-4.8184 2.1294-1.4395-1.8046c-0.75743-0.902-3.711-4.2845-6.5127-7.3658-2.726-3.0063-5.4527-6.1636-5.9832-6.9155-0.53076-0.75224-2.4972-2.3284-4.3866-3.4526-1.8898-1.1995-3.5549-2.8525-3.7842-3.6811-1.6149-8.4397-3.2162-13.185-6.5587-19.733-3.6459-7.075-3.8754-7.9788-3.5113-11.449 0.5841-5.13 5.1479-14.875 8.6784-18.583 1.5774-1.6649 3.3039-3.7828 3.7527-4.7648 0.74884-1.4356 1.2762-1.5882 3.8416-1.2207 3.7726 0.58924 5.9544-0.77623 4.213-2.655-0.53047-0.67686-1.668-2.4069-2.352-3.8371-1.8233-3.6131-4.7009-6.845-7.4975-8.5691-3.0985-1.7984-3.4781-2.4755-3.4918-6.1706-0.00648-1.7344-0.46548-3.4672-0.91934-3.8426-1.7391-1.2755-7.173-2.4619-11.32-2.4462l-4.223 0.01574-2.8104-5.4191-2.8855-5.3435 1.4232-2.5691c1.4224-2.7956 4.7303-5.5228 6.5402-5.5295 0.60321-0.00213 3.4 1.7219 6.2729 3.7473 7.7885 5.7021 15.418 9.218 20.698 9.5756 9.1272 0.6446 12.586-2.083 14.587-11.291 0.29608-1.5094 1.3484-2.418 4.1341-3.6349 3.8397-1.6735 4.9641-3.4875 4.0472-6.7266-0.30675-1.3563-0.0064-1.7344 1.8773-2.1184 2.3361-0.46115 3.2357-1.8975 4.1986-6.5764 0.44525-1.9623 0.59575-2.0382 6.0253-2.0587 7.8423-0.0291 8.518-0.8611 7.3543-9.6041-2.4814-18.391-2.1154-21.333 2.4789-22.859 2.2595-0.7626 2.5594-1.2161 2.551-3.4783-0.00537-1.4326 0.96424-4.3018 2.1626-6.5687 2.0225-3.6272 4.55-13.44 4.5345-17.587-0.00818-2.1866 0.74584-2.2652 3.9202-0.31623 4.0813 2.4733 6.3402 1.56 5.3461-2.1317-0.30655-1.356-0.08093-1.5076 2.9357-1.4435 5.5812 0.20534 8.8153-2.0686 12.033-8.6415 1.5721-3.0975 2.844-5.8169 2.8425-6.1941-0.00125-0.30153-0.98215-0.5242-2.2644-0.5195-1.2064 0.0046-2.2636-0.3687-2.265-0.7456-0.00171-0.45257-0.6814-0.75164-1.4356-0.74883-2.4131 0.00903-2.569-1.3477-0.38732-2.7888 3.3852-2.1994 5.3174-9.8985 3.2695-13.058-0.6066-0.9024-0.75688-0.75134-0.75096 0.8323 0.00384 1.0555-0.5185 2.566-1.1187 3.3979-1.0506 1.361-1.1266 1.2105-0.68444-1.5812 0.29547-1.6602 0.59179-3.094 0.66644-3.2452 0.52568-0.60535-4.0251-7.6768-5.0053-7.6732-0.30176 0.00113-0.67456 1.1335-0.896 2.4167l-0.21692 2.4893-1.4449-3.2374c-1.2935-3.0868-3.4094-4.2856-3.4009-2.0232 0.01152 3.0916-5.1283-0.0567-13.756-8.3197-6.5841-6.3099-7.6426-7.06-10.131-7.0508-2.4128 0.00903-3.5467-0.66534-8.4656-5.3227-4.1625-3.9812-7.2622-6.1567-11.794-8.1759-10.953-5.0869-12.689-5.4578-24.529-5.6397-5.9579-0.1286-10.936-0.33633-11.163-0.48636-0.15155-0.22574 0.97699-0.90844 2.4824-1.6683 3.6132-1.7479 2.3284-2.497-5.1393-3.0727-4.8273-0.2838-5.9578-0.12844-9.3454 1.4674zm234.56 231.69c-0.98 0.15444-2.488 0.15994-3.3936 0.0126-0.98085-0.1472-0.22745-0.3008 1.6578-0.30774 1.8851-0.00706 2.6399 0.14084 1.7357 0.29514zm-33.907 149.51c2.4193 1.5746 6.0459 3.4464 8.0848 4.193 1.9635 0.7469 3.5498 1.495 3.5504 1.6456 6e-4 0.1511-7.1627 0.3286-15.835 0.3608l-15.836 0.0587-0.76074-1.807c-0.38074-0.9788-1.5156-1.9549-2.6477-2.2523-3.2459-0.8176-1.59-1.6534 6.1721-3.0395 4.0694-0.7692 7.9127-1.4623 8.5153-1.6154 3.0141-0.6145 4.5993-0.1678 8.7565 2.4561zm-96.853 13.18c0.23249 1.7338 0.9942 3.767 1.6758 4.5184 0.68126 0.7516 1.288 1.6545 1.2891 1.9558 0.00207 0.528-42.983 0.0848-43.513-0.4411-0.07562-0.0752-0.30518-0.9793-0.38464-2.0348-0.23254-1.7335-0.08214-1.8097 6.5518-2.3621 3.7692-0.3156 11.686-0.7976 17.717-1.046 10.405-0.4162 11.008-0.5693 12.66-2.3852 2.3284-2.4971 3.4615-1.9736 4.0035 1.795zm-228.63 63.668c0.60545 0.6009 1.3706 3.5391 1.7586 6.4784 0.85291 6.3312 2.1453 9.1167 6.9146 14.076 2.0438 2.1041 4.6218 5.8649 5.7623 8.3492 2.8126 6.0223 8.7155 11.656 15.363 14.799 2.8706 1.3468 5.2889 2.6952 5.29 2.9967 0.07677 0.3767-8.3683 0.6344-18.699 0.6727-15.534 0.0578-19.23-0.1546-21.647-1.1261-6.873-2.8399-11.419-8.6299-13.109-16.843-0.84423-3.9183-0.84533-4.2198 0.73352-5.5079 0.90237-0.682 2.0312-1.2893 2.4837-1.291 1.6591-0.0061 5.7137-4.6967 6.4575-7.4898 0.96661-3.6986 2.41-21.124 1.8013-22.554-0.2284-0.6026-0.2326-1.7336 0.06587-2.5642 0.29753-1.1323 0.97923-0.3054 3.0302 3.6839 1.4432 2.7849 3.1129 5.6444 3.7941 6.3206zm315.64 33.966c0.00135 0.3773-0.6682 2.7928-1.5632 5.5108-6.0359 19.403-8.7534 38.944-9.8439 70.168-0.88257 26.246-2.125 36.884-5.9886 52.433-0.9651 4.151-2.0702 11.093-2.3557 15.468-0.42663 6.9392-0.72314 8.2978-2.4493 10.566-2.626 3.5541-4.1948 7.5566-4.7802 12.309-0.29357 2.1883-0.9616 5.0564-1.5599 6.4159-1.2701 3.1718-0.73964 3.9241 4.2443 5.7153 2.8692 0.9697 3.8524 1.7202 3.8567 2.8511 0.01098 3.0166-2.5262 10.265-8.5816 24.39-7.3266 17.07-8.2192 20.391-7.5854 28.533 0.31884 4.6743 0.17454 6.4093-0.72496 7.8454-0.9 1.3606-1.0437 3.3218-0.798 8.5245l0.32703 6.7856-26.167 0.0972c-14.403 0.0537-26.394-0.2035-26.622-0.5043-0.30372-0.5269-1.5347-7.1582-7.3131-40.091-1.3089-7.2347-3.2355-18.313-4.314-24.492-3.6984-21.101-8.8599-50.417-16.181-92.694-7.1671-41.373-9.0154-51.698-10.014-56.671-1.7662-8.5145-2.9699-7.7561 11.584-7.8103 6.9376-0.0259 13.648-0.4279 14.928-0.8096 6.1753-2.2099 6.4346-13.598 0.45964-18.326-0.98302-0.7505-1.816-1.6523-1.8171-1.954-0.0014-0.3769 7.6886-0.8582 17.189-1.1197 9.4256-0.2614 19.981-0.8284 23.523-1.2942 3.5425-0.4658 11.683-1.3256 18.091-2.0281 14.85-1.5633 24.796-3.7119 34.285-7.2912 7.5303-2.8937 10.167-3.507 10.171-2.5266zm-145.85 37.494c0.23082 1.2056 0.92542 5.5016 1.6196 9.6463 0.69403 4.1451 1.6971 10.25 2.3128 13.565 0.6156 3.3157 1.6171 9.0428 2.31 12.811 0.61687 3.693 2.1575 12.359 3.3894 19.217 1.2322 6.858 2.3886 13.64 2.6202 15.072 0.46375 3.0147 5.24 30.144 7.0877 40.318 0.69238 3.6924 1.7701 9.6458 2.3113 13.188 1.4646 8.5911 3.1611 18.69 4.4705 26 6.2353 34.138 12.021 69.181 11.722 69.71-0.29999 0.4537-15.381 0.8115-39.059 0.8996-45.547 0.1696-138.07 1.7202-182.1 2.9399-17.116 0.5161-31.444 0.7202-31.746 0.4951-0.37757-0.1494-0.08327-2.1111 0.66266-4.3008 0.7461-2.1897 3.7241-12.532 6.6266-22.874 2.9023-10.418 6.4754-22.949 7.9651-27.931 1.4896-4.9828 4.094-14.343 5.88-20.76 1.786-6.4166 4.0924-14.796 5.2098-18.495 1.0416-3.7743 3.4993-12.079 5.2854-18.495 1.8613-6.417 4.3181-14.948 5.5102-18.873 1.1166-3.9254 3.4238-12.078 5.1359-18.118 1.6366-6.0389 4.8369-17.438 7.1453-25.289 2.3083-7.9265 6.3275-22.119 9.0069-31.63 2.6794-9.5116 4.987-17.589 5.2118-17.967 0.22496-0.3025 34.309-0.7308 75.709-0.8849l75.258-0.28 0.46002 2.0344z"/> <path d="m106.76 943.1c-10.791 3.7662-160.01 154.1-162.96 163.99-4.7844 16.04-6.2825 13.996 79.547 99.561 85.454 85.005 84.706 84.449 100.15 80.107 7.6298-2.0784 16.359-9.5616 18.941-16.465 2.398-6.5287 1.9875-16.775-1.015-22.352-1.5001-2.7885-31.796-33.788-67.323-69.052l-64.698-64.031 64.774-65.446c35.635-35.902 65.698-67.31 66.808-69.551 3.3278-6.7187 2.3539-18.08-2.1418-24.77-8.6159-12.45-19.622-16.508-32.088-11.99z"/> </svg>
